<mxfile host="app.diagrams.net" modified="2021-10-21T04:02:58.799Z" agent="5.0 (Macintosh; Intel Mac OS X 10_14_5) AppleWebKit/537.36 (KHTML, like Gecko) Chrome/94.0.4606.81 Safari/537.36" etag="BCdScjl1-OCstRlK8uOK" version="15.5.6" type="github">
  <diagram id="xOa8urjB6kpWdedyfURd" name="Page-1">
    <mxGraphModel dx="643" dy="755" grid="1" gridSize="10" guides="1" tooltips="1" connect="1" arrows="1" fold="1" page="1" pageScale="1" pageWidth="850" pageHeight="1100" math="0" shadow="0">
      <root>
        <mxCell id="0" />
        <mxCell id="1" parent="0" />
        <mxCell id="CBFW_vPaAqB35TPwrYVN-1" value="" style="rounded=0;whiteSpace=wrap;html=1;" vertex="1" parent="1">
          <mxGeometry x="80" y="40" width="560" height="680" as="geometry" />
        </mxCell>
        <mxCell id="CBFW_vPaAqB35TPwrYVN-4" value="&lt;h1&gt;Welcome!&lt;/h1&gt;&lt;p&gt;[description of site&#39;s purpose]&amp;nbsp;&lt;span&gt;Lorem ipsum dolor sit amet, consectetur adipisicing elit, sed do eiusmod tempor incididunt ut labore et dolore magna aliqua.&lt;/span&gt;&lt;/p&gt;" style="text;html=1;strokeColor=none;fillColor=none;spacing=5;spacingTop=-20;whiteSpace=wrap;overflow=hidden;rounded=0;align=center;" vertex="1" parent="1">
          <mxGeometry x="220" y="110" width="280" height="120" as="geometry" />
        </mxCell>
        <mxCell id="CBFW_vPaAqB35TPwrYVN-9" value="&lt;font style=&quot;font-size: 16px&quot;&gt;View requests&lt;/font&gt;" style="rounded=1;html=1;shadow=0;dashed=0;whiteSpace=wrap;fontSize=10;fillColor=#E6E6E6;align=center;strokeColor=#E6E6E6;fontColor=#333333;" vertex="1" parent="1">
          <mxGeometry x="440" y="280" width="120" height="50" as="geometry" />
        </mxCell>
        <mxCell id="CBFW_vPaAqB35TPwrYVN-10" value="&lt;font style=&quot;font-size: 16px&quot;&gt;Make requests&lt;/font&gt;" style="rounded=1;html=1;shadow=0;dashed=0;whiteSpace=wrap;fontSize=10;fillColor=#E6E6E6;align=center;strokeColor=#E6E6E6;fontColor=#333333;" vertex="1" parent="1">
          <mxGeometry x="160" y="280" width="120" height="50" as="geometry" />
        </mxCell>
        <mxCell id="CBFW_vPaAqB35TPwrYVN-12" value="Quarantining?" style="text;html=1;strokeColor=none;fillColor=none;align=center;verticalAlign=middle;whiteSpace=wrap;rounded=0;fontSize=16;" vertex="1" parent="1">
          <mxGeometry x="150" y="240" width="140" height="30" as="geometry" />
        </mxCell>
        <mxCell id="CBFW_vPaAqB35TPwrYVN-13" value="Looking to help?" style="text;html=1;strokeColor=none;fillColor=none;align=center;verticalAlign=middle;whiteSpace=wrap;rounded=0;fontSize=16;" vertex="1" parent="1">
          <mxGeometry x="430" y="240" width="140" height="30" as="geometry" />
        </mxCell>
      </root>
    </mxGraphModel>
  </diagram>
</mxfile>
